<svg width="1448" height="521" viewBox="0 0 1448 521" fill="none" xmlns="http://www.w3.org/2000/svg">
<rect x="269" y="5" width="484.345" height="502" rx="5" fill="white" stroke="#702828" stroke-width="10"/>
<path d="M296.779 280.104H724.388V481.717C724.388 483.926 722.598 485.717 720.388 485.717H300.779C298.57 485.717 296.779 483.926 296.779 481.717V280.104Z" fill="#EAE69F" stroke="#702828" stroke-width="2"/>
<rect x="295.779" width="429.609" height="279.103" fill="#702828"/>
<path d="M391.117 0H630.051L589.95 67.0897H432.889L391.117 0Z" fill="#EAE69F"/>
<path d="M385.651 174.198L435.77 69.5898H587.841L636.708 174.198L587.841 278.806H435.77L385.651 174.198Z" fill="#702828" stroke="#EAE69F" stroke-width="5"/>
<rect x="957.802" y="5" width="484.345" height="502" rx="5" fill="white" stroke="#EAA53D" stroke-width="10"/>
<path d="M985.582 280.104H1413.19V481.717C1413.19 483.926 1411.4 485.717 1409.19 485.717H989.582C987.372 485.717 985.582 483.926 985.582 481.717V280.104Z" fill="#EAE69F" stroke="#EAA53D" stroke-width="2"/>
<rect x="984.582" width="429.609" height="279.103" fill="#EAA53D"/>
<path d="M1079.92 0H1318.85L1278.75 67.5724H1121.69L1079.92 0Z" fill="#EAE69F"/>
<path d="M1074.45 174.198L1124.57 69.5898H1276.64L1325.51 174.198L1276.64 278.806H1124.57L1074.45 174.198Z" fill="#EAA53D" stroke="#EAE69F" stroke-width="5"/>
<path d="M917.523 96.4545L823.773 444.75H793.091L886.841 96.4545H917.523Z" fill="black"/>
<path d="M132.386 133.091V424H97.1591V170.023H95.4545L24.4318 217.182V181.386L97.1591 133.091H132.386Z" fill="black"/>
</svg>
