<svg width="147" height="71" viewBox="0 0 147 71" fill="none" xmlns="http://www.w3.org/2000/svg">
<path d="M114.008 3.20483C118.321 31.9328 22.3703 41.2608 6.0683 65.8698L138.268 69.9235L141.825 66.9148L143.041 56.2138L135.433 53.9121L125.62 52.7456L140.135 52.7805L140.093 48.5139L142.99 48.4732L145.362 21.5443L141.49 20.2943L118.118 17.7586L146.016 18.5677L146.276 10.4551L145.116 10.4768L145.568 3.20959L143.273 1L114.008 3.20483Z" fill="#AA7D4C" stroke="black"/>
<path d="M143.028 1.10474V16.2607L117.582 17.2709L141.34 20.2607L139.122 45.4167L135.965 45.1355V51.1043L113.941 51.3569L135.153 53.5419L135.492 67.1428L137.201 70.1071L5.01105 65.947L1.64777 62.7233L1.00012 50.0424H1.59381V35.9484L21.1278 35.6958L5.28082 33.4483L7.53082 8.2923L8.68701 8.38599V1.1048L143.028 1.10474Z" fill="#C9A884" stroke="black"/>
<path d="M7.6582 8.4248L27.3562 9.94" stroke="black"/>
<path d="M135.948 45.0449L117.26 43.2771" stroke="black"/>
<path d="M1.08826 49.8448L11.4423 50.0974" stroke="black"/>
<path d="M135.718 67.5348L101.08 65.4739" stroke="black" stroke-width="0.95942"/>
<path opacity="0.2043" d="M47.5782 23.0948L12.9402 21.0339" stroke="black" stroke-width="0.95942"/>
<path opacity="0.2043" d="M119.268 60.7248L70.3063 58.1411" stroke="black" stroke-width="1.023"/>
<path opacity="0.2043" d="M137.618 23.9049L88.8143 19.2085" stroke="black" stroke-width="1.023"/>
<path opacity="0.2043" d="M131.058 22.6449L82.2543 17.9485" stroke="white" stroke-width="1.023"/>
<path opacity="0.2043" d="M95.5083 58.4247L46.5723 55.3975" stroke="white" stroke-width="1.023"/>
<path opacity="0.2043" d="M61.1682 36.2048L12.2322 33.1775" stroke="white" stroke-width="1.023"/>
<path d="M135.488 67.1448L137.197 70.109L5.00726 65.949L1.64398 62.7253L135.488 67.1448Z" fill="black" fill-opacity="0.32365"/>
<path d="M146.048 18.1449L142.513 15.8721" stroke="black"/>
<path d="M143.018 48.4548L138.978 45.4243" stroke="black"/>
<path d="M139.608 51.9849L136.073 51.2273" stroke="black"/>
</svg>
