<svg width="360" height="480" viewBox="0 0 360 480" fill="none" xmlns="http://www.w3.org/2000/svg">
<rect x="2.5" y="2.5" width="355" height="475" rx="7.5" fill="white" stroke="#E9D100" stroke-width="5"/>
<path d="M24.1426 262.659H335V451.297C335 453.506 333.209 455.297 331 455.297H28.1426C25.9334 455.297 24.1426 453.506 24.1426 451.297V262.659Z" fill="#EAE69F" stroke="#E9D100" stroke-width="2"/>
<rect x="24" width="312.857" height="261.659" fill="#E9D100"/>
<rect x="22" y="154" width="64" height="22" fill="white"/>
<rect x="274" y="154" width="64" height="22" fill="white"/>
<path d="M280 0.00544786C280 55.2339 235.228 100.005 180 100.005C124.772 100.005 80 55.2339 80 0.00544786C80 0.0113068 124.772 0 180 0C235.228 0 280 0.00544786 280 0.00544786Z" fill="#EAE69F"/>
<circle cx="180" cy="164" r="97.5" fill="#E9D100" stroke="white" stroke-width="5"/>
</svg>
