<svg width="1290" height="512" viewBox="0 0 1290 512" fill="none" xmlns="http://www.w3.org/2000/svg">
<path d="M677.85 263.7C677.55 262.8 677.4 261.7 677.4 260.4C677.4 258.4 677.4 255.9 677.4 252.9C677.4 249.9 677.4 246.65 677.4 243.15C677.5 239.55 677.55 235.9 677.55 232.2C677.65 228.4 677.7 224.75 677.7 221.25C677.7 217.65 677.7 214.35 677.7 211.35C677.8 208.35 677.85 205.85 677.85 203.85C677.85 201.85 678.2 200.45 678.9 199.65C679.6 198.75 680.95 198.25 682.95 198.15C690.05 197.95 696.55 197.8 702.45 197.7C708.45 197.5 714.55 197.35 720.75 197.25C723.95 197.25 725.55 199.4 725.55 203.7C725.55 206 725.2 207.65 724.5 208.65C723.9 209.65 722.6 210.25 720.6 210.45C718.6 210.65 716.4 210.8 714 210.9C711.6 211 709.15 211.1 706.65 211.2C704.25 211.3 701.9 211.4 699.6 211.5C697.3 211.5 695.25 211.55 693.45 211.65C693.45 212.85 693.4 214.65 693.3 217.05C693.3 219.35 693.25 222 693.15 225C693.05 227.9 692.95 231 692.85 234.3C692.85 237.5 692.8 240.5 692.7 243.3C692.7 246.1 692.7 248.55 692.7 250.65C692.7 252.75 692.7 254.2 692.7 255C692.7 256.2 693.2 256.8 694.2 256.8C696.3 256.7 698.5 256.6 700.8 256.5C703.2 256.3 705.55 256.15 707.85 256.05C710.15 255.95 712.3 255.85 714.3 255.75C716.4 255.55 718.25 255.4 719.85 255.3C721.85 255.1 723.25 255.4 724.05 256.2C724.85 256.9 725.35 258.4 725.55 260.7C725.75 263.1 725.3 264.85 724.2 265.95C723.2 266.95 721.9 267.55 720.3 267.75C715.2 268.35 710.1 268.85 705 269.25C699.9 269.55 694.2 269.9 687.9 270.3C686.5 270.4 685 270.2 683.4 269.7C683.5 270 683.55 270.55 683.55 271.35C683.55 273.45 683.55 276.4 683.55 280.2C683.65 283.9 683.7 287.5 683.7 291C690.1 290.7 696.35 290.45 702.45 290.25C708.55 289.95 714.55 289.7 720.45 289.5C722.35 289.4 723.7 289.95 724.5 291.15C725.3 292.25 725.7 293.7 725.7 295.5C725.7 297.8 725.2 299.45 724.2 300.45C723.2 301.55 721.85 302.2 720.15 302.4C705.85 303.5 691.2 304.45 676.2 305.25C661.3 306.05 646.15 306.65 630.75 307.05C626.95 307.05 625.05 304.75 625.05 300.15C625.05 297.95 625.5 296.3 626.4 295.2C627.3 294.1 628.8 293.5 630.9 293.4C637.2 293.2 643.4 292.95 649.5 292.65C655.7 292.35 661.85 292.05 667.95 291.75C667.85 288.15 667.8 284.45 667.8 280.65C667.8 276.75 667.85 273.65 667.95 271.35C667.95 270.85 667.95 270.35 667.95 269.85C667.95 269.35 668.05 268.9 668.25 268.5C663.35 269.5 658.4 270.3 653.4 270.9C648.5 271.4 643 271.85 636.9 272.25C634 272.45 631.55 271.65 629.55 269.85C627.65 268.05 626.6 265.55 626.4 262.35C626.2 259.35 626.05 255.25 625.95 250.05C625.85 244.75 625.75 239.25 625.65 233.55C625.65 227.75 625.6 222.25 625.5 217.05C625.5 211.75 625.5 207.6 625.5 204.6C625.5 202.6 625.85 201.2 626.55 200.4C627.25 199.5 628.6 199 630.6 198.9C634.1 198.8 637.35 198.7 640.35 198.6C643.45 198.5 646.45 198.45 649.35 198.45C652.25 198.35 655.1 198.3 657.9 198.3C660.7 198.2 663.65 198.15 666.75 198.15C669.95 198.15 671.55 200.25 671.55 204.45C671.55 206.75 671.2 208.45 670.5 209.55C669.9 210.55 668.6 211.15 666.6 211.35C662.5 211.55 658.15 211.75 653.55 211.95C648.95 212.15 644.8 212.3 641.1 212.4C641.1 213.6 641.1 215.4 641.1 217.8C641.2 220.2 641.25 222.9 641.25 225.9C641.25 228.9 641.25 232 641.25 235.2C641.25 238.4 641.25 241.45 641.25 244.35C641.25 247.15 641.25 249.65 641.25 251.85C641.35 253.95 641.4 255.4 641.4 256.2C641.4 257.4 641.9 258 642.9 258C647.1 257.7 651.5 257.3 656.1 256.8C660.8 256.2 664.75 255.75 667.95 255.45C669.95 255.25 671.3 255.65 672 256.65C672.8 257.55 673.35 259.15 673.65 261.45C673.75 262.45 673.75 263.3 673.65 264C674.05 263.9 674.4 263.85 674.7 263.85C675 263.85 675.4 263.8 675.9 263.7H677.85ZM771.986 274.95C763.386 275.15 755.286 275.35 747.686 275.55C743.886 275.75 741.986 273.6 741.986 269.1C741.986 266.9 742.436 265.25 743.336 264.15C744.236 263.05 745.736 262.45 747.836 262.35C755.636 262.05 763.886 261.8 772.586 261.6C781.386 261.3 790.136 261.05 798.836 260.85C807.536 260.55 815.986 260.3 824.186 260.1C832.386 259.9 839.886 259.7 846.686 259.5C848.586 259.4 849.936 259.95 850.736 261.15C851.536 262.25 851.936 263.7 851.936 265.5C851.936 267.8 851.436 269.45 850.436 270.45C849.436 271.45 848.086 272 846.386 272.1C839.286 272.5 831.586 272.9 823.286 273.3C814.986 273.6 806.486 273.9 797.786 274.2C789.186 274.5 780.586 274.75 771.986 274.95ZM839.486 313.8C839.486 315.9 838.886 317.4 837.686 318.3C836.586 319.3 835.336 319.85 833.936 319.95C828.936 320.35 823.486 320.7 817.586 321C811.686 321.3 805.686 321.55 799.586 321.75C793.486 321.95 787.536 322.1 781.736 322.2C775.936 322.4 770.736 322.5 766.136 322.5C763.736 322.5 761.836 321.65 760.436 319.95C759.036 318.35 758.236 316.3 758.036 313.8C757.636 309.2 757.336 304.75 757.136 300.45C757.036 296.25 756.986 292.75 756.986 289.95C756.986 287.65 757.486 286.1 758.486 285.3C759.586 284.5 761.586 284 764.486 283.8C767.386 283.6 769.536 283.9 770.936 284.7C772.336 285.5 773.086 287.05 773.186 289.35C773.286 292.65 773.336 295.8 773.336 298.8C773.336 301.7 773.386 304.55 773.486 307.35C773.486 308.55 773.986 309.15 774.986 309.15C778.786 309.05 783.286 308.9 788.486 308.7C793.686 308.6 798.986 308.45 804.386 308.25C809.886 308.05 815.186 307.85 820.286 307.65C825.486 307.55 829.986 307.5 833.786 307.5C835.786 307.5 837.236 307.95 838.136 308.85C839.036 309.85 839.486 311.5 839.486 313.8ZM753.236 193.65C754.336 193.35 755.786 193.1 757.586 192.9C760.786 192.7 762.986 193.05 764.186 193.95C765.386 194.85 766.036 196.5 766.136 198.9C766.236 201.4 766.286 204.35 766.286 207.75C766.386 211.15 766.486 214.55 766.586 217.95C766.686 221.25 766.736 224.35 766.736 227.25C766.836 230.05 766.886 232.1 766.886 233.4C766.886 234.5 767.386 235.05 768.386 235.05C770.886 234.95 773.986 234.85 777.686 234.75C781.386 234.55 785.386 234.35 789.686 234.15C793.986 233.95 798.436 233.75 803.036 233.55C807.636 233.35 812.086 233.15 816.386 232.95C820.686 232.75 824.686 232.55 828.386 232.35C832.086 232.15 835.186 232 837.686 231.9C839.386 231.8 840.736 232.15 841.736 232.95C842.836 233.65 843.436 235.35 843.536 238.05C843.636 240.05 843.186 241.55 842.186 242.55C841.286 243.45 840.136 244 838.736 244.2C836.336 244.5 833.186 244.85 829.286 245.25C825.486 245.55 821.236 245.9 816.536 246.3C811.936 246.6 807.086 246.9 801.986 247.2C796.986 247.4 792.036 247.65 787.136 247.95C782.336 248.15 777.786 248.35 773.486 248.55C769.286 248.65 765.686 248.7 762.686 248.7C759.386 248.8 756.736 248 754.736 246.3C752.736 244.6 751.636 242.2 751.436 239.1C750.936 233.2 750.586 227.05 750.386 220.65C750.186 214.15 749.936 207.25 749.636 199.95C749.636 198.85 749.686 197.9 749.786 197.1C749.886 196.3 750.186 195.6 750.686 195C751.286 194.4 752.136 193.95 753.236 193.65Z" fill="black"/>
<path d="M102.6 167.5C109.2 168.7 112.7 172 113.1 177.4C113.5 189.4 113.8 203.1 114 218.5C114.2 233.7 114.3 249.5 114.3 265.9C114.5 282.1 114.5 298.2 114.3 314.2C114.1 330 113.9 344.5 113.7 357.7C113.7 362.1 113.6 366 113.4 369.4C113.4 372.6 112.9 375.3 111.9 377.5C111.1 379.9 109.6 381.7 107.4 382.9C105.2 384.3 101.8 385.1 97.2 385.3C92.4 385.5 89 385 87 383.8C85 382.8 83.7 381.1 83.1 378.7C82.5 376.3 82.3 373.3 82.5 369.7C82.7 366.1 82.7 362 82.5 357.4C82.1 346.6 81.8 334.5 81.6 321.1C81.4 307.7 81.2 294.1 81 280.3C81 266.5 80.9 252.9 80.7 239.5C80.5 226.1 80.3 213.9 80.1 202.9C77.7 204.5 74.2 206.7 69.6 209.5C65.2 212.1 60.4 214.9 55.2 217.9C50.2 220.9 45.2 223.8 40.2 226.6C35.2 229.2 31.1 231.4 27.9 233.2C24.5 235 21.3 235.7 18.3 235.3C15.5 234.9 13 233 10.8 229.6C9 226.8 8.1 223.6 8.1 220C8.1 216.2 9.2 213.5 11.4 211.9C15 209.5 19.5 206.5 24.9 202.9C30.5 199.3 36.3 195.6 42.3 191.8C48.3 187.8 54.1 184.1 59.7 180.7C65.3 177.1 69.9 174.1 73.5 171.7C77.5 169.1 81.7 167.5 86.1 166.9C90.7 166.3 96.2 166.5 102.6 167.5Z" fill="black"/>
<rect x="908.5" y="2.5" width="379" height="507" rx="7.5" fill="white" stroke="#EAA53D" stroke-width="5"/>
<path d="M931.685 280.103H1263.4V481.717C1263.4 483.926 1261.61 485.717 1259.4 485.717H935.685C933.476 485.717 931.685 483.926 931.685 481.717V280.103Z" fill="#EAE69F" stroke="#EAA53D" stroke-width="2"/>
<rect x="931.6" y="6.3999" width="333.714" height="279.103" fill="#EAA53D"/>
<path d="M991.333 0H1204.67L1168.86 70.4H1028.63L991.333 0Z" fill="#EAE69F"/>
<path d="M983.398 177.067L1029.23 72.8999H1167.93L1212.61 177.067L1167.93 281.233H1029.23L983.398 177.067Z" fill="#EAA53D" stroke="white" stroke-width="5"/>
<rect x="929.467" y="164.267" width="61.8667" height="23.4667" fill="white"/>
<rect x="1204.67" y="164.267" width="61.8667" height="23.4667" fill="white"/>
<rect x="204.5" y="2.5" width="379" height="507" rx="7.5" fill="white" stroke="#702828" stroke-width="5"/>
<path d="M227.686 280.103H559.4V481.717C559.4 483.926 557.609 485.717 555.4 485.717H231.686C229.476 485.717 227.686 483.926 227.686 481.717V280.103Z" fill="#EAE69F" stroke="#702828" stroke-width="2"/>
<rect x="226.686" width="333.714" height="279.103" fill="#702828"/>
<path d="M287.333 0H500.667L464.863 70.4H324.63L287.333 0Z" fill="#EAE69F"/>
<path d="M279.398 177.067L325.231 72.8999H463.925L508.613 177.067L463.925 281.233H325.231L279.398 177.067Z" fill="#702828" stroke="white" stroke-width="5"/>
<rect x="225.467" y="164.267" width="61.8667" height="23.4667" fill="white"/>
<rect x="500.667" y="164.267" width="61.8667" height="23.4667" fill="white"/>
</svg>
